<svg viewBox="0 0 43 28" version="1.1" xmlns="http://www.w3.org/2000/svg">
  <g stroke="none" strokeWidth="1" fill="none" fillRule="evenodd">
      <g transform="translate(-794.000000, -732.000000)" fill="currentColor" fillRule="nonzero">
          <g transform="translate(554.000000, 615.000000)">
              <path d="M264.172484,117.304771 C263.633781,117.278123 263.182228,117.510265 262.993657,118.217454 C262.672575,120.505056 262.465656,122.757811 262.343339,124.981355 C262.316837,124.978793 262.290335,124.973156 262.264343,124.970594 L243.523891,123.326636 C241.031178,123.10833 240.10208,126.572017 240.10208,130.605043 C240.10208,134.635506 241.036274,137.584688 243.523891,137.883962 C251.155945,138.794083 256.443086,138.508133 262.264343,137.331022 C262.330598,137.317186 262.397362,137.298737 262.460559,137.282851 C262.598675,139.356759 262.782151,141.414781 262.994166,143.462041 C263.822352,144.905628 265.232053,144.207151 266.291112,143.462041 C272.13938,139.359834 276.067786,136.418339 281.32078,132.497541 C282.358943,131.723221 282.366078,129.945512 281.32078,129.181954 C275.934767,125.250394 272.394207,122.557953 266.291112,118.217454 C265.698385,117.793141 264.865103,117.336543 264.172484,117.304771 Z"></path>
          </g>
      </g>
  </g>
</svg>