<?xml version="1.0" encoding="utf-8"?>
<!-- Generator: Adobe Illustrator 16.0.0, SVG Export Plug-In . SVG Version: 6.00 Build 0)  -->
<!DOCTYPE svg PUBLIC "-//W3C//DTD SVG 1.1//EN" "http://www.w3.org/Graphics/SVG/1.1/DTD/svg11.dtd">
<svg version="1.1" id="Layer_1" xmlns="http://www.w3.org/2000/svg" xmlns:xlink="http://www.w3.org/1999/xlink" x="0px" y="0px"
	 width="1684.929px" height="1071.41px" viewBox="0 0 1684.929 1071.41" enable-background="new 0 0 1684.929 1071.41"
	 xml:space="preserve">
<g>
	<g id="XMLID_1_">
		<path fill="#FFFFFF" d="M449.154,669.005c0.32,8.58,0.65,16.5,0.65,29.04c0,66.66-24.75,89.75-80.19,89.75
			c-59.39,0-81.83-29.7-81.83-132.32c0-96.029,23.76-121.77,83.16-121.77c57.41,0,78.86,19.8,78.86,79.2
			c0,12.87-0.66,22.439-1.32,32.67c-10.56-0.33-21.78-0.33-32.34-0.33s-20.79,0-31.35,0.33c0.33-9.24,0.66-16.83,0.66-22.771
			c0.01-24.09-4.94-30.689-14.18-30.689c-10.9,0-15.84,6.93-15.84,63.689c0,57.42,4.94,66,16.5,66c9.57,0,13.85-10.56,13.85-31.68
			c0-6.27-0.33-13.53-0.66-21.12c10.57,0.33,20.79,0.33,31.68,0.33C427.364,669.335,438.254,669.335,449.154,669.005z"/>
		<path fill="#FFFFFF" d="M623.054,731.375c2.25,16.71,4.5,39.36,6.44,52.12v1h-0.16h-57.76c-8.91,0-10.89-3.96-12.87-17.82
			c-3.96-56.09-6.26-63.35-17.81-63.35c-3.97,0-6.6,0-10.56,0c0.65,32.67,1.64,61.05,3.3,81.17h-67.98
			c0.66-35.63,0.98-70.94,0.98-123.74c0-52.47-0.32-88.1-0.98-123.74h91.07c44.88,0,67.98,15.511,67.98,72.601
			c0,50.149-11.22,68.63-41.91,73.91v1.979C608.205,689.465,618.435,699.365,623.054,731.375z M543.534,657.785
			c11.87,0,16.49-8.25,16.49-34.65c0-29.04-5.61-33.989-18.14-33.989c-2.32,0-7.26,0-12.22,0.329c0,23.101,0,46.19,0.34,67.98
			C533.634,657.785,538.254,657.785,543.534,657.785z"/>
		<path fill="#FFFFFF" d="M629.494,783.495c10.27-63,29.23-215.96,32.18-246.48h110.88c3.95,31.351,23.76,184.79,34.31,247.48
			h-73.58c0-9.24-0.66-26.07-1.98-47.19h-16.17h-16.5c-1.32,20.46-2.31,37.29-2.31,47.19h-66.67h-0.16V783.495z M715.464,684.515
			h12.21c-1.98-24.75-4.29-50.489-6.93-73.26c-1.98-11.88-3.3-27.72-4.62-40.26h-1.98c-0.99,12.54-2.64,28.38-4.62,40.26
			c-2.64,22.771-4.95,48.51-6.93,73.26H715.464z"/>
		<path fill="#FFFFFF" d="M815.784,537.015h125.39c-0.33,11.221-0.66,28.04-0.66,42.57c0,13.521,0.33,28.37,0.33,38.271
			c-19.8-0.33-40.59-0.66-57.74-0.66v27.39v9.24c19.801,0,39.261-0.33,56.091-1.32c-0.33,17.49-0.33,53.79-0.33,72.59
			c-16.16-0.319-35.301-0.649-54.44-0.979c0.66,20.13,1.32,40.26,1.98,60.38h-70.621c0.33-34.64,0.66-71.271,0.66-123.74
			S816.444,571.665,815.784,537.015z"/>
		<path fill="#FFFFFF" d="M949.434,537.005h127.7c-0.33,9.57-0.33,24.42-0.33,37.95c0,13.2,0,29.04,0.33,39.6
			c-9.56-0.33-19.14-0.33-28.05-0.659c0.34,74.25,0.67,154.109,1,170.939c-9.58-1-25.41-1-36.63-1c-11.55,0-26.73,0-36.96,1
			c0.989-16.83,1.31-96.689,1.31-170.939c-9.229,0.329-18.8,0.329-28.37,0.659c0.32-10.56,0.32-26.399,0.32-39.6
			C949.754,561.425,949.754,546.575,949.434,537.005z"/>
		<path fill="#FFFFFF" d="M1090.004,537.015h131.01c-0.33,7.591-0.33,20.45-0.33,31.021c0,11.54,0,25.07,0.33,33.32
			c-22.439-0.33-45.53-0.66-64.35-0.66v29.04c21.45,0,43.89-0.33,62.37-0.99c-0.33,13.2-0.33,41.25-0.33,56.1
			c-17.82-0.659-40.26-0.989-62.04-0.989v30.029c19.14,0,43.229,0,64.35-0.33c0,8.91-0.33,23.101-0.33,35.641
			c0,11.88,0.33,25.74,0.33,35.3h-131.01c0.67-34.31,0.67-70.94,0.67-123.74C1090.674,608.285,1090.674,570.335,1090.004,537.015z"
			/>
		<path fill="#FFFFFF" d="M1403.174,651.515c0,110.54-22.11,132.98-81.84,132.98h-82.5c0.66-34.98,1-70.94,1-123.41
			s-0.34-90.75-1-124.08h83.82C1377.434,537.005,1403.174,554.165,1403.174,651.515z M1315.064,721.135
			c15.511,0,21.45-6.27,21.45-64.34c0-58.08-6.6-63.359-21.12-63.359c-3.3,0-6.6,0-9.569,0.329c-0.66,20.46-0.66,43.891-0.66,66.99
			c0,25.74,0,44.87,0.33,60.05C1308.464,721.135,1311.764,721.135,1315.064,721.135z"/>
		<path fill="#FFFFFF" d="M1406.014,378.415c0,83.12-29.92,103.58-118.41,103.58h-140.409c0.51-27.11,0.77-54.99,0.77-95.65
			c0-40.67-0.26-69.82-0.77-96.17h141.939C1371.234,290.175,1406.014,306.805,1406.014,378.415z M1300.644,381.995
			c0-32.22-8.18-38.36-26.85-38.36c-7.68,0-15.09,0.25-22.51,0.51c-0.261,13.3-0.511,27.37-0.511,40.92c0,14.58,0,26.09,0,35.81
			c7.671,0.77,14.83,0.77,23.021,0.77C1292.205,421.645,1300.644,414.735,1300.644,381.995z"/>
		<path fill="#FFFFFF" d="M1033.134,290.175h89.26c-1.02,18.93-1.279,54.99-1.279,95.66c0,42.71,0,71.61,0.77,96.16h-111.26
			c-7.93-15.34-26.851-39.64-41.17-59.59c-6.4-12.02-12.03-23.78-16.63-35.55h-0.511c1.28,15.6,1.79,29.41,2.561,45.01
			c0.25,25.07,0.25,42.46,1.02,50.13h-90.029c0.26-26.09,0.77-54.99,0.77-95.91c0-40.66,0.26-69.31-0.77-95.9h116.89
			c3.83,10.23,27.87,44.24,40.66,64.7c4.35,9.21,8.95,18.67,12.53,28.9l1.02-0.51c-1.02-13.04-1.53-25.06-1.79-34.53
			C1034.665,325.985,1034.155,302.965,1033.134,290.175z"/>
		<path fill="#FFFFFF" d="M852.575,481.995h-118.67c-0.25-7.93-1.28-19.95-3.07-34.01h-25.06h-26.08
			c-2.05,14.06-3.33,26.08-3.59,34.01h-108.18c16.62-48.59,46.29-165.73,51.4-191.81h179.29
			C804.754,316.785,835.185,433.405,852.575,481.995z M705.774,403.225h18.16c-2.81-16.37-6.4-32.99-10.23-48.34
			c-3.33-11.25-6.14-23.78-8.19-33.76h-0.51c-2.05,9.98-4.86,22.25-7.93,34.02c-3.58,15.35-6.9,31.71-9.97,48.08H705.774z"/>
		<path fill="#FFFFFF" d="M449.264,290.185h106.9c-0.77,27.1-1.02,55.49-1.02,95.9c0,40.67,0.26,68.04,1.02,95.91h-106.91
			c0.77-17.64,1.03-41.68,1.28-63.17c-7.93-0.25-16.37-0.25-24.81-0.25c-8.44,0-16.88,0-24.81,0.25c0,21.49,0.26,45.53,1.03,63.17
			h-106.91c1.28-27.62,1.28-55.24,1.28-95.91c0-40.41,0-68.54-1.28-95.9h106.91c-0.77,17.39-1.03,42.19-1.03,64.19
			c7.93,0.25,16.37,0.25,24.82,0.25c8.43,0,16.88,0,24.8-0.25C450.284,332.125,450.024,307.575,449.264,290.185z"/>
		<path fill="#1D1D1B" d="M1587.125,191.715c85.71,70.95,103.939,164.73,96.189,254.58c-7.899,90.72-51.779,239.101-181.51,355.5
			h-0.149c-129.73,116.4-334.41,206.97-561,248.26c-95.921,17.49-196.86,26.4-292.82,18.391c-84.6-7.61-167.71-27.08-246.88-57.851
			c-374.77-142.46-510.12-453.77-305.96-704.35c42.88-52.76,95.09-97.18,154.03-131.04c86.97-50.25,197.2-84.43,307.19-115.13
			c106.75-29.95,218.8-57.7,333.78-59.91c135.68-2.8,259.609,29.96,378.149,62.27
			C1387.945,94.965,1512.285,129.825,1587.125,191.715z M1321.334,784.495c59.729,0,81.84-22.44,81.84-132.98
			c0-97.35-25.74-114.51-80.52-114.51h-83.82c0.66,33.33,1,71.61,1,124.08s-0.34,88.43-1,123.41H1321.334z M1287.604,481.995
			c88.49,0,118.41-20.46,118.41-103.58c0-71.61-34.78-88.24-116.88-88.24h-141.939c0.51,26.35,0.77,55.5,0.77,96.17
			c0,40.66-0.26,68.54-0.77,95.65H1287.604z M1221.014,537.015h-131.01c0.67,33.32,0.67,71.271,0.67,123.74
			c0,52.8,0,89.431-0.67,123.74h131.01c0-9.56-0.33-23.42-0.33-35.3c0-12.54,0.33-26.73,0.33-35.641
			c-21.12,0.33-45.21,0.33-64.35,0.33v-30.029c21.78,0,44.22,0.33,62.04,0.989c0-14.85,0-42.899,0.33-56.1
			c-18.48,0.66-40.92,0.99-62.37,0.99v-29.04c18.819,0,41.91,0.33,64.35,0.66c-0.33-8.25-0.33-21.78-0.33-33.32
			C1220.684,557.465,1220.684,544.605,1221.014,537.015z M1122.394,290.175h-89.26c1.021,12.79,1.53,35.81,2.04,58.57
			c0.26,9.47,0.771,21.49,1.79,34.53l-1.02,0.51c-3.58-10.23-8.181-19.69-12.53-28.9c-12.79-20.46-36.83-54.47-40.66-64.7h-116.89
			c1.029,26.59,0.77,55.24,0.77,95.9c0,40.92-0.51,69.82-0.77,95.91h90.029c-0.77-7.67-0.77-25.06-1.02-50.13
			c-0.771-15.6-1.28-29.41-2.561-45.01h0.511c4.6,11.77,10.229,23.53,16.63,35.55c14.319,19.95,33.24,44.25,41.17,59.59h111.26
			c-0.77-24.55-0.77-53.45-0.77-96.16C1121.115,345.165,1121.375,309.105,1122.394,290.175z M1077.134,537.005h-127.7
			c0.32,9.57,0.32,24.42,0.32,37.95c0,13.2,0,29.04-0.32,39.6c9.57-0.33,19.141-0.33,28.37-0.659c0,74.25-0.32,154.109-1.31,170.939
			c10.229-1,25.41-1,36.96-1c11.22,0,27.05,0,36.63,1c-0.33-16.83-0.66-96.689-1-170.939c8.91,0.329,18.49,0.329,28.05,0.659
			c-0.33-10.56-0.33-26.399-0.33-39.6C1076.804,561.425,1076.804,546.575,1077.134,537.005z M941.174,537.015h-125.39
			c0.66,34.65,0.66,71.271,0.66,123.74s-0.33,89.101-0.66,123.74h70.621c-0.66-20.12-1.32-40.25-1.98-60.38
			c19.14,0.33,38.28,0.66,54.44,0.979c0-18.8,0-55.1,0.33-72.59c-16.83,0.99-36.29,1.32-56.091,1.32v-9.24v-27.39
			c17.15,0,37.94,0.33,57.74,0.66c0-9.9-0.33-24.75-0.33-38.271C940.514,565.055,940.844,548.235,941.174,537.015z M733.904,481.995
			h118.67c-17.39-48.59-47.82-165.21-53.96-191.81h-179.29c-5.11,26.08-34.78,143.22-51.4,191.81h108.18
			c0.26-7.93,1.54-19.95,3.59-34.01h26.08h25.06C732.625,462.045,733.654,474.065,733.904,481.995z M733.284,784.495h73.58
			c-10.55-62.69-30.36-216.13-34.31-247.48h-110.88c-2.95,30.521-21.91,183.48-32.18,246.48c-1.94-12.76-4.19-35.41-6.44-52.12
			c-4.62-32.01-14.85-41.91-40.26-45.87v-1.979c30.69-5.28,41.91-23.761,41.91-73.91c0-57.09-23.1-72.601-67.98-72.601h-91.07
			c0.66,35.641,0.98,71.271,0.98,123.74c0,52.8-0.32,88.11-0.98,123.74h67.98c-1.66-20.12-2.65-48.5-3.3-81.17
			c3.96,0,6.59,0,10.56,0c11.55,0,13.85,7.26,17.81,63.35c1.98,13.86,3.96,17.82,12.87,17.82h57.76h0.16h0.16h66.67
			c0-9.9,0.99-26.73,2.31-47.19h16.5h16.17C732.625,758.425,733.284,775.255,733.284,784.495z M556.165,290.185h-106.9
			c0.76,17.39,1.02,41.94,1.27,64.19c-7.92,0.25-16.37,0.25-24.8,0.25c-8.45,0-16.89,0-24.82-0.25c0-22,0.26-46.8,1.03-64.19
			h-106.91c1.28,27.36,1.28,55.49,1.28,95.9c0,40.67,0,68.29-1.28,95.91h106.91c-0.77-17.64-1.03-41.68-1.03-63.17
			c7.93-0.25,16.37-0.25,24.81-0.25c8.44,0,16.88,0,24.81,0.25c-0.25,21.49-0.51,45.53-1.28,63.17h106.91
			c-0.76-27.87-1.02-55.24-1.02-95.91C555.145,345.675,555.395,317.285,556.165,290.185z M449.804,698.045
			c0-12.54-0.33-20.46-0.65-29.04c-10.9,0.33-21.79,0.33-32.35,0.33c-10.89,0-21.11,0-31.68-0.33c0.33,7.59,0.66,14.851,0.66,21.12
			c0,21.12-4.28,31.68-13.85,31.68c-11.56,0-16.5-8.58-16.5-66c0-56.76,4.94-63.689,15.84-63.689c9.24,0,14.19,6.6,14.18,30.689
			c0,5.94-0.33,13.53-0.66,22.771c10.56-0.33,20.79-0.33,31.35-0.33s21.78,0,32.34,0.33c0.66-10.23,1.32-19.8,1.32-32.67
			c0-59.4-21.45-79.2-78.86-79.2c-59.4,0-83.16,25.74-83.16,121.77c0,102.62,22.44,132.32,81.83,132.32
			C425.054,787.795,449.804,764.705,449.804,698.045z"/>
		<path fill="#1D1D1B" d="M1336.514,656.795c0,58.07-5.939,64.34-21.45,64.34c-3.3,0-6.6,0-9.569-0.33
			c-0.33-15.18-0.33-34.31-0.33-60.05c0-23.1,0-46.53,0.66-66.99c2.97-0.329,6.27-0.329,9.569-0.329
			C1329.915,593.436,1336.514,598.715,1336.514,656.795z"/>
		<path fill="#1D1D1B" d="M1273.794,343.635c18.67,0,26.85,6.14,26.85,38.36c0,32.74-8.439,39.65-26.85,39.65
			c-8.19,0-15.35,0-23.021-0.77c0-9.72,0-21.23,0-35.81c0-13.55,0.25-27.62,0.511-40.92
			C1258.705,343.885,1266.115,343.635,1273.794,343.635z"/>
		<path fill="#1D1D1B" d="M727.674,684.515h-12.21h-12.87c1.98-24.75,4.29-50.489,6.93-73.26c1.98-11.88,3.63-27.72,4.62-40.26h1.98
			c1.32,12.54,2.64,28.38,4.62,40.26C723.384,634.025,725.694,659.765,727.674,684.515z"/>
		<path fill="#1D1D1B" d="M723.935,403.225h-18.16h-18.67c3.07-16.37,6.39-32.73,9.97-48.08c3.07-11.77,5.88-24.04,7.93-34.02h0.51
			c2.05,9.98,4.86,22.51,8.19,33.76C717.534,370.235,721.125,386.855,723.935,403.225z"/>
		<path fill="#1D1D1B" d="M560.024,623.135c0,26.4-4.62,34.65-16.49,34.65c-5.28,0-9.9,0-13.53-0.33
			c-0.34-21.79-0.34-44.88-0.34-67.98c4.96-0.329,9.9-0.329,12.22-0.329C554.415,589.146,560.024,594.095,560.024,623.135z"/>
	</g>
</g>
</svg>
