<?xml version="1.0" encoding="utf-8"?>
<!-- Generator: Adobe Illustrator 24.2.1, SVG Export Plug-In . SVG Version: 6.00 Build 0)  -->
<svg version="1.1" id="Layer_1" xmlns="http://www.w3.org/2000/svg" xmlns:xlink="http://www.w3.org/1999/xlink" x="0px" y="0px"
	 viewBox="0 0 239 99" style="enable-background:new 0 0 239 99;" xml:space="preserve">
<g>
	<g transform="translate(-36.000000, -44.000000)">
		<g transform="translate(36.000000, 44.000000)">
			<path d="M21.6,33.2c-0.4-5.4-0.9-11-1.5-16c-0.4-2.6-0.7-6-1-8.8h-0.4c-0.2,2.7-0.6,6.2-1,8.8c-0.6,5-1.1,10.6-1.5,16h2.8H21.6z
				 M22.8,55c0-2-0.1-5.7-0.4-10.3h-3.6h-3.6c-0.3,4.5-0.5,8.1-0.5,10.3H0C2.2,41.4,6.5,7.7,7.1,1h24.4c0.9,6.8,5.2,40.3,7.5,54
				H22.8z"/>
			<path d="M56.4,1c-0.1,4-0.2,15.2-0.3,26.8c0,3.3,0,7.1,0.1,10.6c2.3-0.1,5.2-0.1,7.8-0.2c-0.1,2.5-0.1,5.4-0.1,8.1
				c0,3,0,6,0.1,8.7H41c0.1-3.9,0.2-15.5,0.2-27c0-12,0-21.9-0.2-27H56.4z"/>
			<path d="M87.1,26.1c0-11.4-1.1-13.4-3.7-13.4c-2.5,0-3.8,2-3.8,13.4c0,12.2,1.3,14.6,3.8,14.6C86,40.8,87.1,38.4,87.1,26.1
				 M83.4,55C70.3,55,65,47.9,65,26.2C65,5.2,71.2,0,83.4,0S102,5.2,102,26.2C102,47.9,96.4,55,83.4,55"/>
			<path d="M142,1c-2.7,8.1-5,23.3-10.7,27.6c4,1.4,5.4,4.5,6.4,8.6c2.2,8.1,3.5,14.9,4.3,17.7h-13.8c-1.7,0-2.3-0.5-2.6-2.1
				c-1.2-7-3-15-5-19.4h-0.7c0,8,0.1,15.3,0.2,21.5H105c0.1-7.6,0.2-15.5,0.2-27c0-11.4-0.1-19.5-0.2-27h15.1
				c-0.2,6.6-0.2,15.4-0.2,23.8h0.4c0.9-2.4,2-4.9,2.6-7.2c2-7.9,3-13.1,3.7-16.6H142z"/>
			<path d="M144,55c0.1-7.6,0.1-15.6,0.1-27c0-11.4,0-19.5-0.1-27h15c-0.1,7.5-0.1,15.5-0.1,26.9s0.1,19.5,0.1,27.1H144z"/>
			<path d="M198,1c-0.1,3.5-0.2,15.5-0.2,26.9c0,12.1,0,20.2,0.1,27.1h-14.6c-1.2-4.3-3.3-10.8-5.3-16.6c-1.2-4.3-2.1-8.9-2.9-13.5
				l-0.3,0.1c0.4,5.4,0.5,10.1,0.6,14.5c0.1,7.8,0.1,13.3,0.2,15.5H163c0.1-7.3,0.1-15.5,0.1-27c0-11.4,0.1-19.7-0.1-27h15.9
				c0.6,3.2,3.3,11.5,5.2,19.2c0.9,3.2,1.7,7.1,2.3,11.1h0.1c-0.3-4.5-0.5-8.8-0.5-12.2c-0.1-6.3-0.2-13.5-0.4-18.1H198z"/>
			<path d="M224.1,26.1c0-11.4-1.1-13.4-3.7-13.4c-2.5,0-3.8,2-3.8,13.4c0,12.2,1.3,14.6,3.8,14.6C223,40.8,224.1,38.4,224.1,26.1
				 M220.4,55c-13.1,0-18.4-7.1-18.4-28.8c0-21,6.2-26.2,18.4-26.2C232.6,0,239,5.2,239,26.2C239,47.9,233.4,55,220.4,55"/>
			<path d="M13.5,77.8c0,1.7,0.8,2.5,3.5,2.5c2.6,0,3.6-0.7,3.6-2.5c0-1.7-1-2.5-3.6-2.5S13.5,76.1,13.5,77.8L13.5,77.8z M9.6,92.6
				c-0.1,0.2-0.2,0.4-0.2,0.6c0,1,1.4,1.3,8.6,1.3c5.8,0,6.7-0.4,6.7-1.3c0-0.6-0.3-0.9-2.2-0.9c-4,0-8.7,0.4-11.9,0.4H9.6z
				 M28.4,75.6c4,0.9,5.2,1.9,5.2,3.9c0,3.8-2.4,5.7-16.7,5.7c-2.2,0-4.2-0.1-5.9-0.2c-0.1,0.2-0.2,0.4-0.2,0.7c0,1,1,1.3,3,1.3
				c5.3,0,9.7-0.6,13.6-0.6c5.2,0,7.7,1.4,7.7,5.7c0,5-2.2,6.9-17.8,6.9C2,99,0,98,0,95.6c0-1.8,1.5-2.7,5.7-3.1v-0.1
				c-3.6-0.5-4.6-1.7-4.6-3.3c0-2.4,2.1-3.8,6.3-4.4v-0.1c-5-1-6.9-3.2-6.9-6.7C0.4,72,5.3,70,16.8,70c1.3,0,9.8,0.1,17.6,0.1
				c0,1.2-0.1,4.4,0,5.7c-1,0-3.4-0.2-6.1-0.4V75.6z"/>
			<path d="M57.2,79.8c0-2.8-0.8-3.8-2.9-3.8c-2.2,0-3.1,0.8-3.4,4.3c1.7,0,3.7,0.1,6.3,0V79.8z M69.8,85.8c0.4,6-1.6,9.2-16.1,9.2
				C41.8,95,37,91.6,37,82.3C37,72.8,42.3,70,54.2,70C66.9,70,70,73,70,79.8c0,1.9-0.1,3.4-0.3,4.4c-3.3-0.1-8-0.1-12.1-0.1
				c-2.7,0-5,0-6.7,0c0.2,3.5,1.1,4.5,3.3,4.5c2,0,2.8-0.9,2.8-2.9c1.2,0.1,3.6,0.1,6.1,0.1C65.5,85.9,67.8,85.8,69.8,85.8
				L69.8,85.8z"/>
			<path d="M72,93c0.2-4.3,0.1-9.6,0.1-14.8c0-4.9,0-9-0.1-13.2h14c-0.1,4.1-0.1,8.1-0.1,14c0,5.8,0,9.9,0.1,14H72z"/>
			<path d="M107.9,84.1c-1-0.1-1.9-0.1-2.9-0.1c-2.3,0-3.1,0.6-3.1,1.9c0,1.4,0.7,1.9,2.7,1.9c2.1,0,3.4-1.1,3.4-3.6V84.1z
				 M107.9,79.8c0-2-0.6-2.7-2.9-2.7c-2.4,0-3.1,0.8-2.9,2.9c-1.2-0.1-3.3-0.1-5.5-0.1c-2.6,0-5.5,0-6.8,0.2
				c-0.3-7.5,3.7-10,15.7-10c11.9,0,16.1,2.8,16.1,8.9c0,3.3-0.1,5.4-0.1,8.3c0,2.4,0.2,5.3,0.5,6.3h-11c-2.6,0-2.9-0.2-2.9-2.6
				c0-0.3,0-0.9,0-1.4H108c-1.2,3-4.6,4.5-9.7,4.5C92,94,89,92.4,89,87.7c0-4.9,3.7-6.7,12.8-6.7c2.5,0,4.6,0.1,6.1,0.3V79.8z"/>
			<path d="M138.9,81.9c0,1.5,0.8,2.1,4.1,2.1c3,0,5.2-0.2,7-0.7c0.1,2.9,0.5,6.7,0.9,9.7c-3.5,0.6-7.4,1-12.1,1
				c-10.8,0-13.8-3.4-13.8-8.8c0-1.5,0.1-3.6,0.1-5.9H123c0-2.6,0.1-6,0-8.3l2.4,0c0-1.4,0-2.8-0.1-4c2.3,0.1,4.6,0.1,7,0.1
				c2.3,0,5,0,7-0.1l-0.1,4.1c4.4,0,8.5,0,11.4-0.1c-0.1,2.8-0.3,5.8-0.2,8.6c-1.8,0-6.4-0.1-11.4-0.2V81.9z"/>
			<path d="M169.4,77.3c-2.4,0-3.6,0.9-3.6,4.2c0,3.3,1.3,4.3,3.6,4.3c2.4,0,3.6-1.1,3.6-4.3C173,78.3,171.8,77.3,169.4,77.3
				 M169.4,94c-12.2,0-17.4-3.7-17.4-12.5c0-9.1,5.8-11.5,17.4-11.5c11.5,0,17.6,2.4,17.6,11.5C187,90.3,181.6,94,169.4,94"/>
		</g>
	</g>
</g>
</svg>
