<svg xmlns="http://www.w3.org/2000/svg" viewBox="0 0 416.65985 449.99128"><defs><style>.a{fill:none;}.b{fill:#fff;}</style></defs><path class="a" d="M246.20154,444.21441c-51.62,13.17-109.32,3.58-158.18-26.3-20.67-12.64-40.02-29.06-54.22-50.03-13.33-19.7-21.68-42.79-27.03-66.11-27.08-118.25,29.39-245.75,127.81-288.49,18.7-8.12,38.76-13.46,59.43-13.28,27.52.23,54.89,10.16,81.33,21.19,25.64,10.69,51.71,23.05,71.76,44.27,23.66,25.04,36.25,59.49,48.06,92.65,11.96,33.54,24.13,68.69,21,103.25-3.59,39.55-24.44,73.7-48.65,101.53-24.45,28.11-69.69,68.15-121.31,81.32"/><path class="b" d="M294.78156,336.22442c-5.4,0-8.18-5.25-8.18-31.65,0-24.55,2.78-28.88,8.18-28.88,5.56,0,8.03,4.32,8.03,28.88.01,26.4-2.47,31.65-8.03,31.65m40.15-31.5c0-45.39-13.89-56.67-40.15-56.67-26.25,0-39.68,11.28-39.68,56.67,0,46.79,11.42,62.22,39.68,62.22,28.11.01,40.15-15.43,40.15-62.22m-88.8,60.68c-.47-16.67-.47-33.5-.47-58.06,0-25.32.16-42.61.31-57.74h-36.29c-1.39,9.88-3.86,23.32-6.33,37.06-.77,5.56-1.54,14.05-2.47,21.61h-.77c-.77-7.56-1.54-15.9-2.32-21.61-2.62-13.9-4.63-27.33-6.33-37.06h-39.52c.16,15.13.3,32.42.3,57.74,0,24.55-.15,41.38-.46,58.06h26.56c-.31-14.05-.77-23.93-.77-38.91-.16-8.8-.78-18.07-1.08-27.64l.77-.15c1.54,9.42,3.24,19.29,4.48,25.47l9.26,41.23h12.66l8.95-40.76c1.24-6.02,2.94-15.9,4.48-25.79l.77.16c-.46,9.57-1.08,19.46-1.08,27.33,0,14.98-.3,24.71-.77,39.06h30.12Zm-133.44-41.84c-.31,12.19-2.47,15.75-7.57,15.75-7.1,0-9.26-6.49-9.26-33.04,0-26.86,2.32-32.73,8.65-32.73,4.32,0,6.33,2.94,6.33,12.36,0,1.85-.16,4.32-.31,6.94,4.01-.16,9.26-.31,14.98-.31,6.17,0,11.58.16,15.9.31.16-3.24.31-6.33.31-9.26,0-25.17-8.8-35.52-37.06-35.52-28.57,0-40.15,12.05-40.15,57.91,0,46.78,11.11,60.99,39.68,60.99,33.35,0,38.75-16.52,37.21-66.39-7.57.3-15.13.3-20.84.3-4.48,0-10.65,0-16.68-.15.16,2.78.16,6.63.16,10.8,0,2.94,0,9.57-.16,12.2Z"/><path class="b" d="M304.59156,105.38441c.48,10.29.8,26.21.97,40.37,0,7.56.48,17.04,1.12,27.18h-.32c-1.45-8.85-3.38-17.7-5.31-24.77-4.35-17.05-10.29-35.54-11.74-42.78h-36.03c.32,16.4.16,34.74.16,60.32,0,25.73,0,44.07-.16,60.32h28.63c-.16-4.83-.16-17.05-.48-34.58-.16-9.81-.48-20.26-1.29-32.32l.64-.16a294.85324,294.85324,0,0,0,6.59,30.08c4.67,12.87,9.33,27.34,12.06,36.99h33.14c-.32-15.28-.32-33.45-.32-60.48,0-25.57.16-52.27.48-60.15h-28.14Zm-105.03,90.23c-5.63,0-8.53-5.47-8.53-32.97,0-25.58,2.9-30.08,8.53-30.08,5.79,0,8.36,4.5,8.36,30.08,0,27.5-2.57,32.97-8.36,32.97m41.82-32.81c0-47.29-14.47-59.02-41.82-59.02s-41.33,11.74-41.33,59.02c0,48.74,11.9,64.82,41.33,64.82,29.27,0,41.82-16.09,41.82-64.82m-123.04-57.42c.48,10.29.8,26.21.97,40.37,0,7.56.48,17.04,1.12,27.18h-.32a250.57874,250.57874,0,0,0-5.31-24.77c-4.34-17.05-10.29-35.54-11.74-42.78h-36.03c.32,16.4.16,34.74.16,60.32,0,25.73,0,44.07-.16,60.32h28.63c-.16-4.83-.16-17.05-.48-34.58-.16-9.81-.48-20.26-1.29-32.32l.64-.16a294.864,294.864,0,0,0,6.6,30.08c4.66,12.87,9.33,27.34,12.06,36.99h33.13c-.32-15.28-.32-33.45-.32-60.48,0-25.57.16-52.27.48-60.15h-28.14Z"/></svg>