<svg id="Layer_1" data-name="Layer 1" xmlns="http://www.w3.org/2000/svg" viewBox="0 0 500 500"><defs><style>.cls-1{fill:#1d1d1b;}.cls-2{fill:#fff;}</style></defs><path class="cls-1" d="M92.37,412.15c39.3,39.36,97,62.27,158.14,62.84,25.88.23,52.69-3.5,77.4-14,23.23-9.86,43.85-25.34,61.89-42.65,91.45-87.76,112.45-228.79,47.52-319.08C425,82.12,409.83,66.62,391,55.58,366,40.89,335.55,34.69,305.38,29.92c-29.28-4.62-59.88-8-90-.5-35.6,8.9-66.49,31.92-96,54.25-29.81,22.58-60.73,46.44-77.44,78.07C22.81,198,22.36,238.82,28.53,276c6.25,37.58,24.55,96.76,63.84,136.11"/><path class="cls-2" d="M356.05,258.48c.26,13.16.4,28.26.4,49s-.14,34.9-.4,48.71h32.57c23.56,0,32.29-8.85,32.29-52.49,0-38.41-10.16-45.19-31.78-45.19Zm30.09,72.67a35.48,35.48,0,0,1-3.78-.13c-.13-6-.13-13.54-.13-23.7,0-9.11,0-18.36.26-26.44a35.48,35.48,0,0,1,3.78-.13c5.73,0,8.33,2.09,8.33,25s-2.34,25.39-8.46,25.39m-88.93-72.67c.26,13.16.26,28.13.26,48.84s0,35.29-.26,48.84H348.9c0-3.78-.13-9.25-.13-13.94,0-5,.13-10.55.13-14.06-8.32.13-17.83.13-25.39.13V316.44c8.59,0,17.45.13,24.49.39,0-5.86,0-16.93.12-22.14-7.29.26-16.15.39-24.61.39V283.62c7.43,0,16.54.13,25.39.26-.13-3.25-.13-8.6-.13-13.15,0-4.17,0-9.25.13-12.25Zm-42.84,63.95c-1.82.13-4.55.13-7.55.13-5.08,0-10.15-.26-13.8-.52-.26,3.64-.39,7-.39,10.67,0,16.93,6.37,24.88,29.43,24.88,21.48,0,29.3-8.72,29.3-27.61,0-18.36-6-26.17-21.88-32.17-9.77-3.91-11.2-7.81-11.2-14.19,0-4,1.56-6.12,5.34-6.12,4.43,0,5.73,2.48,5.73,7.42,0,1.95,0,4.17-.13,6.52,1.95,0,4.81-.13,8.08-.13,4.42,0,9.76.26,13,.52.13-3.53.26-6.78.26-9.64,0-17.58-6.12-25.14-28.78-25.14-20.45,0-29.3,8.21-29.3,27.1,0,17.05,4.17,25.91,22.13,32,9,3.14,10.81,6.91,10.81,13.94,0,4.69-1.3,6.77-5.47,6.77s-5.6-2.34-5.6-8.72Zm-23.55,33.73c-4.17-24.75-12-85.3-13.55-97.68H173.52c-1.18,12.12-8.74,73.06-12.76,97.68h26.42c0-3.91.4-10.55.92-18.62H201c.53,8.33.78,15,.78,18.62ZM194.74,316.7h-5.08c.79-9.77,1.69-19.92,2.73-28.91.79-4.69,1.44-10.94,1.82-15.89H195c.52,5,1.05,11.2,1.82,15.89,1.05,9,2,19.14,2.74,28.91Zm-51.43-10.42a20.35,20.35,0,0,0,6.51-1.82c6.25-3.13,8.34-7.82,8.34-21,0-20.05-8.59-25-24-25H95c.39,13.55.39,28.13.39,48.84s0,35-.39,48.84h39.72c18.23,0,24.09-6.39,24.09-25.78,0-11.6-2.34-19.28-9.37-22.14a18.46,18.46,0,0,0-6.13-1.31ZM132.51,287c0,9.24-2.09,12.24-6.78,12.36h-5.21c0-7.93,0-16.27.13-22.78,1.82-.13,3.65-.13,5.34-.13,4.56,0,6.52,1.82,6.52,10.55m-6.39,49.61c-1.56,0-3.38,0-5.47-.13-.13-7-.13-15.36-.13-22.91,2.08-.14,3.91-.14,5.6-.14,4.56,0,6.65,2.48,6.65,11.73s-1.83,11.45-6.65,11.45"/><path class="cls-2" d="M371.29,141.28c.13,3.78.13,9.64.13,15s0,11.46-.13,15.63c3.78-.13,7.55-.13,11.2-.26,0,29.3-.13,60.81-.52,67.45,4-.38,10-.38,14.59-.38s10.68,0,14.45.38c-.13-6.64-.26-38.15-.39-67.45,3.52.13,7.29.13,11.07.26-.13-4.17-.13-10.42-.13-15.63s0-11.2.13-15Zm-33.36,0c.39,8.34.66,21.23.79,32.68,0,6.13.39,13.81.9,22h-.26c-1.17-7.17-2.73-14.33-4.29-20.06-3.51-13.8-8.34-28.78-9.51-34.64H296.39c.26,13.29.14,28.13.14,48.84s0,35.68-.14,48.83h23.18c-.13-3.9-.13-13.8-.39-28-.13-8-.4-16.42-1-26.18l.52-.13A237.34,237.34,0,0,0,324,209c3.78,10.42,7.56,22.14,9.76,29.95h26.83c-.26-12.37-.26-27.08-.26-49,0-20.71.13-42.32.39-48.71ZM286.47,239c-4.17-24.74-12-85.3-13.54-97.67H229.17C228,153.4,220.45,214.34,216.41,239h26.43c0-3.9.4-10.55.92-18.62h12.89c.52,8.34.79,15,.79,18.62ZM250.4,199.5h-5.08c.79-9.77,1.69-19.94,2.74-28.92.78-4.68,1.43-10.94,1.82-15.88h.78c.52,4.94,1.05,11.2,1.82,15.88,1.05,9,2,19.15,2.74,28.92Zm-83.11-58.22c.4,9.25.4,27.08.4,48.84,0,20.84-.27,41.8-.4,48.83h42.19c-.12-4.82-.12-10.42-.12-15.75,0-4.95,0-10.17.12-14.72-4.81.13-10,.26-14.32.39-.13-6.25-.13-13.15-.13-19.14.13-21,.26-41.29.52-48.45Zm-72.16,0c.26,13.81.26,28.13.26,48.84s0,34.77-.26,48.83h26.7c-.4-5.72-.66-12.89-.92-21,2.48.13,5,.13,6.39.13,23,0,29.16-8.47,29.16-39.72,0-30.6-8.07-37.12-26.57-37.12Zm28.52,55.87a21.24,21.24,0,0,1-3-.13c-.13-10.68-.13-22.4-.13-34.51,1.44-.13,2.74-.13,3.52-.13,5.72,0,8.07,2.47,8.07,17.84,0,14.07-1.82,16.93-8.46,16.93"/></svg>