<svg xmlns="http://www.w3.org/2000/svg" viewBox="0 0 449.9925 341.18054">
  <defs>
    <style>.a{fill:none;}.b{fill:#fff;}</style>
  </defs>
  <path class="a" d="M53.73388,65.69985c35.96-33.69,91.53-56.96,152.3-63.77,25.72-2.89,52.67-2.88,78.08,2.42,23.88,4.98,45.62,14.46,64.92,25.6,97.88,56.42,129.9,160.25,72.47,234.92a144.32429,144.32429,0,0,1-42.6,37.68c-23.76,13.67-53.5,21.52-83.14,28.25-28.75,6.53-58.9,12.29-89.5,9.78-36.11-2.96-68.65-17.05-99.72-30.75-31.42-13.86-64.06-28.57-83.18-50.6-21.88-25.22-25.56-55.91-22.36-84.54,3.23-28.89,16.77-75.3,52.73-108.99" />
  <path class="b" d="M169.91388,185.55984l18.08,10.68-23.54-46.71-52.7,1.57,17.02,10.09-23.15,42.83s18.59,33.68,31.26,53.8c5.18,8.22,12.11,12.88,18.76,12.88h67.67v-48.79l-73.5-.03Z" />
  <path class="b" d="M232.20388,130.41986l51.29,3.07,24.59-46.61-17.17,9.83-25.88-41.25s-38.47-.44-62.2.71c-9.71.47-17.19,4.2-20.46,9.97l-33.34,58.9,42.46,24.04,36.23-63.96,21.71,35.38Z" />
  <path class="b" d="M342.46389,189.93984l-32.19-59.53-42.92,23.22,34.94,64.66-41.51-.4.63-18.8-29.73,40.74,26.44,45.61.78-19.76,48.7-.03s20.79-32.38,32.43-53.08c4.8-8.47,5.59-16.77,2.43-22.63" />
</svg>