<?xml version="1.0" encoding="UTF-8"?>
<svg width="199px" height="186px" viewBox="0 0 199 186" version="1.1" xmlns="http://www.w3.org/2000/svg" xmlns:xlink="http://www.w3.org/1999/xlink">
    <g stroke="none" stroke-width="1" fill="none" fill-rule="evenodd">
        <g transform="translate(-1196.000000, -1474.000000)" fill="#F5AB12">
            <path d="M1196.77568,1543.39432 C1214.0107,1562.17428 1217.54136,1592.22088 1205.12783,1614.48429 C1226.04718,1615.53899 1244.95309,1632.97716 1247.69141,1653.74284 C1270.083,1642.22134 1298.91373,1644.52714 1319.19067,1659.46086 C1321.37129,1647.94686 1331.09972,1639.02426 1341.94507,1634.58282 C1352.79042,1630.14213 1364.74145,1629.41951 1376.44135,1628.75086 C1375.20075,1617.64614 1373.96914,1606.32779 1376.16625,1595.37149 C1378.36335,1584.41595 1384.58286,1573.67779 1394.66661,1568.8638 C1384.96516,1563.0116 1376.31317,1555.0395 1371.05016,1545.00598 C1365.78715,1534.9732 1364.19423,1522.75157 1368.15742,1512.1371 C1342.66545,1511.51642 1317.95531,1496.86755 1305.17672,1474.80054 C1299.4632,1485.90376 1286.44398,1491.8684 1273.95773,1491.99509 C1261.47148,1492.12102 1240.18857,1490.99061 1229.19479,1485.06719 C1242.29422,1518.39634 1210.39534,1543.97077 1196.78093,1543.41381"></path>
        </g>
    </g>
</svg>