<?xml version="1.0" encoding="UTF-8"?>
<svg width="214px" height="189px" viewBox="0 0 214 189" version="1.1" xmlns="http://www.w3.org/2000/svg" xmlns:xlink="http://www.w3.org/1999/xlink">
    <g stroke="none" stroke-width="1" fill="none" fill-rule="evenodd">
        <g transform="translate(-46.000000, -1499.000000)" fill="#35865A">
            <path d="M79.8748735,1642.2176 C69.4740406,1624.61751 51.6715627,1610.80221 47.2541135,1590.8416 C43.693468,1574.75198 50.5973722,1556.84156 64.0371223,1547.30578 C65.0018699,1546.62138 66.1480229,1545.94674 67.2986736,1546.22109 C68.4080958,1546.48421 69.1209745,1547.53366 69.7199125,1548.5044 C83.575696,1570.9822 94.53124,1595.24481 102.23123,1620.50216 C97.6848475,1607.03542 93.139215,1593.56943 88.5928329,1580.1027 C85.6948423,1571.51817 82.76162,1562.70801 83.0382259,1553.65197 C83.3148319,1544.59669 87.4796627,1535.09614 95.5499594,1530.97853 C97.0244414,1530.22517 98.7432962,1529.66072 100.318976,1530.1682 C101.606055,1530.58424 102.566305,1531.64044 103.453093,1532.6629 C117.344858,1548.68881 128.651969,1566.9508 136.806222,1586.52985 C129.99452,1573.20629 125.940631,1558.48021 124.972885,1543.54724 C124.469147,1535.78203 124.849199,1527.71998 128.148981,1520.6729 C131.449512,1513.62657 138.1915,1507.78411 145.963452,1507.40556 C158.04416,1522.3093 167.307836,1539.4881 173.123307,1557.77033 C179.278351,1533.77308 194.802016,1512.31026 215.665899,1498.95296 C221.891407,1519.55373 209.703504,1540.76394 198.025337,1558.84077 C220.096841,1560.3235 241.686347,1568.36531 259.348648,1581.68362 C237.634707,1591.93004 212.004056,1593.58517 189.152958,1586.21576 C202.244889,1590.40383 215.33682,1594.59265 228.429501,1598.78072 C234.592791,1600.75294 241.505691,1603.40056 243.839225,1609.43642 C244.63681,1611.49635 244.697528,1614.06376 243.202807,1615.69041 C242.33326,1616.63717 241.081412,1617.11917 239.872292,1617.55394 C212.039288,1627.56947 181.311292,1629.38728 152.491802,1622.721 C158.589126,1629.34905 167.614426,1632.20956 175.855634,1635.84217 C184.096841,1639.47402 192.588419,1644.97841 194.891219,1653.68512 C195.775009,1657.02613 195.58011,1660.79592 193.655863,1663.66692 C190.047992,1669.05212 182.335259,1669.28075 175.875123,1668.75227 C148.188294,1666.49145 120.776571,1660.87238 94.4330411,1652.05772 C86.6618386,1665.44875 76.5368621,1677.46874 64.6615471,1687.40331 C58.828835,1689.40177 53.825191,1681.38694 55.5800271,1675.47627 C57.3356127,1669.5656 62.6728329,1665.59792 66.9605997,1661.16773 C73.2790588,1654.63938 77.7429839,1646.33595 79.7032129,1637.46507"></path>
        </g>
    </g>
</svg>